<mxfile host="app.diagrams.net" modified="2024-07-03T00:45:49.107Z" agent="Mozilla/5.0 (Macintosh; Intel Mac OS X 10_15_7) AppleWebKit/537.36 (KHTML, like Gecko) Chrome/126.0.0.0 Safari/537.36" etag="BB9jyG4KgJAtNbFpLm11" version="24.6.4" type="google">
  <diagram name="Page-1" id="RUW0hZzk88iksa4qX8Tt">
    <mxGraphModel grid="1" page="1" gridSize="10" guides="1" tooltips="1" connect="1" arrows="1" fold="1" pageScale="1" pageWidth="850" pageHeight="1100" math="0" shadow="0">
      <root>
        <mxCell id="0" />
        <mxCell id="1" parent="0" />
        <mxCell id="KL5osW_Pp9hEeo520YDH-1" value="Presentación" style="swimlane;horizontal=0;startSize=20;" vertex="1" parent="1">
          <mxGeometry x="80" y="60" width="160" height="308" as="geometry" />
        </mxCell>
        <mxCell id="KL5osW_Pp9hEeo520YDH-2" value="Autenticacion" style="rounded=1;whiteSpace=wrap;html=1;" vertex="1" parent="KL5osW_Pp9hEeo520YDH-1">
          <mxGeometry x="30" y="60" width="120" height="40" as="geometry" />
        </mxCell>
        <mxCell id="KL5osW_Pp9hEeo520YDH-3" value="Gestion de Comercio" style="rounded=1;whiteSpace=wrap;html=1;" vertex="1" parent="KL5osW_Pp9hEeo520YDH-1">
          <mxGeometry x="30" y="210" width="120" height="40" as="geometry" />
        </mxCell>
        <mxCell id="KL5osW_Pp9hEeo520YDH-4" value="Controlador" style="rounded=1;whiteSpace=wrap;html=1;" vertex="1" parent="KL5osW_Pp9hEeo520YDH-1">
          <mxGeometry x="30" y="130" width="120" height="40" as="geometry" />
        </mxCell>
        <mxCell id="KL5osW_Pp9hEeo520YDH-19" value="" style="dashed=0;outlineConnect=0;html=1;align=center;labelPosition=center;verticalLabelPosition=bottom;verticalAlign=top;shape=mxgraph.weblogos.html5" vertex="1" parent="KL5osW_Pp9hEeo520YDH-1">
          <mxGeometry x="120" y="267" width="30" height="34" as="geometry" />
        </mxCell>
        <mxCell id="KL5osW_Pp9hEeo520YDH-20" value="" style="shape=image;html=1;verticalAlign=top;verticalLabelPosition=bottom;labelBackgroundColor=#ffffff;imageAspect=0;aspect=fixed;image=https://cdn2.iconfinder.com/data/icons/boxicons-logos/24/bxl-javascript-128.png" vertex="1" parent="KL5osW_Pp9hEeo520YDH-1">
          <mxGeometry x="72" y="260" width="48" height="48" as="geometry" />
        </mxCell>
        <mxCell id="KL5osW_Pp9hEeo520YDH-5" value="Negocio" style="swimlane;horizontal=0;startSize=20;" vertex="1" parent="1">
          <mxGeometry x="280" y="60" width="160" height="300" as="geometry" />
        </mxCell>
        <mxCell id="KL5osW_Pp9hEeo520YDH-7" value="CREATE&lt;div&gt;DELETE&lt;/div&gt;&lt;div&gt;UPDATE&lt;/div&gt;&lt;div&gt;READ&lt;/div&gt;" style="rounded=1;whiteSpace=wrap;html=1;" vertex="1" parent="KL5osW_Pp9hEeo520YDH-5">
          <mxGeometry x="30" y="70" width="120" height="80" as="geometry" />
        </mxCell>
        <mxCell id="KL5osW_Pp9hEeo520YDH-22" value="" style="image;aspect=fixed;html=1;points=[];align=center;fontSize=12;image=img/lib/azure2/compute/Function_Apps.svg;" vertex="1" parent="KL5osW_Pp9hEeo520YDH-5">
          <mxGeometry x="73" y="220" width="34" height="30" as="geometry" />
        </mxCell>
        <mxCell id="KL5osW_Pp9hEeo520YDH-8" value="Datos" style="swimlane;horizontal=0;startSize=20;" vertex="1" parent="1">
          <mxGeometry x="480" y="60" width="160" height="300" as="geometry" />
        </mxCell>
        <mxCell id="KL5osW_Pp9hEeo520YDH-9" value="Repositorio" style="rounded=1;whiteSpace=wrap;html=1;" vertex="1" parent="KL5osW_Pp9hEeo520YDH-8">
          <mxGeometry x="30" y="40" width="120" height="40" as="geometry" />
        </mxCell>
        <mxCell id="KL5osW_Pp9hEeo520YDH-10" value="Base de Datos" style="rounded=1;whiteSpace=wrap;html=1;" vertex="1" parent="KL5osW_Pp9hEeo520YDH-8">
          <mxGeometry x="30" y="140" width="120" height="40" as="geometry" />
        </mxCell>
        <mxCell id="KL5osW_Pp9hEeo520YDH-21" value="" style="image;aspect=fixed;html=1;points=[];align=center;fontSize=12;image=img/lib/azure2/databases/Azure_Database_MySQL_Server.svg;" vertex="1" parent="KL5osW_Pp9hEeo520YDH-8">
          <mxGeometry x="75" y="220" width="30" height="40" as="geometry" />
        </mxCell>
        <mxCell id="KL5osW_Pp9hEeo520YDH-11" style="edgeStyle=elbowEdgeStyle;rounded=1;" edge="1" parent="1" source="KL5osW_Pp9hEeo520YDH-2" target="KL5osW_Pp9hEeo520YDH-4">
          <mxGeometry relative="1" as="geometry" />
        </mxCell>
        <mxCell id="KL5osW_Pp9hEeo520YDH-12" style="edgeStyle=elbowEdgeStyle;rounded=1;" edge="1" parent="1" source="KL5osW_Pp9hEeo520YDH-3" target="KL5osW_Pp9hEeo520YDH-4">
          <mxGeometry relative="1" as="geometry" />
        </mxCell>
        <mxCell id="KL5osW_Pp9hEeo520YDH-14" style="edgeStyle=elbowEdgeStyle;rounded=1;" edge="1" parent="1" source="KL5osW_Pp9hEeo520YDH-4" target="KL5osW_Pp9hEeo520YDH-7">
          <mxGeometry relative="1" as="geometry" />
        </mxCell>
        <mxCell id="KL5osW_Pp9hEeo520YDH-16" style="edgeStyle=elbowEdgeStyle;rounded=1;" edge="1" parent="1" source="KL5osW_Pp9hEeo520YDH-7" target="KL5osW_Pp9hEeo520YDH-9">
          <mxGeometry relative="1" as="geometry" />
        </mxCell>
        <mxCell id="KL5osW_Pp9hEeo520YDH-17" style="edgeStyle=elbowEdgeStyle;rounded=1;" edge="1" parent="1" source="KL5osW_Pp9hEeo520YDH-9" target="KL5osW_Pp9hEeo520YDH-10">
          <mxGeometry relative="1" as="geometry" />
        </mxCell>
        <mxCell id="KL5osW_Pp9hEeo520YDH-23" value="&lt;b&gt;ARQUITECTURA GESTIÓN DE COMERCIO LA CITA PERFECTA&lt;/b&gt;" style="text;html=1;align=center;verticalAlign=middle;resizable=0;points=[];autosize=1;strokeColor=none;fillColor=none;" vertex="1" parent="1">
          <mxGeometry x="260" y="8" width="380" height="30" as="geometry" />
        </mxCell>
      </root>
    </mxGraphModel>
  </diagram>
</mxfile>
